<?xml version="1.0" encoding="utf-8"?>
<!-- Generator: Adobe Illustrator 21.0.0, SVG Export Plug-In . SVG Version: 6.00 Build 0)  -->
<svg version="1.1" id="Capa_1" xmlns="http://www.w3.org/2000/svg" xmlns:xlink="http://www.w3.org/1999/xlink" x="0px" y="0px"
	 viewBox="0 0 500 500" style="enable-background:new 0 0 500 500;" xml:space="preserve">
<style type="text/css">
	.st0{fill:url(#SVGID_1_);}
	.st1{fill:url(#SVGID_2_);}
	.st2{fill:url(#SVGID_3_);}
	.st3{fill:url(#SVGID_4_);}
	.st4{fill:url(#SVGID_5_);}
	.st5{fill:url(#SVGID_6_);}
	.st6{fill:url(#SVGID_7_);}
	.st7{fill:url(#SVGID_8_);}
	.st8{fill:#00408F;}
</style>
<g>
	
		<linearGradient id="SVGID_1_" gradientUnits="userSpaceOnUse" x1="1149.0847" y1="420.274" x2="1129.7229" y2="526.7545" gradientTransform="matrix(1.6466 0 0 -1.6466 -1677.9421 899.2023)">
		<stop  offset="0" style="stop-color:#8FC5EC"/>
		<stop  offset="1" style="stop-color:#009BDB"/>
	</linearGradient>
	<path class="st0" d="M145.6,143.9c7.5,41.3,34.9,65.5,71.4,78.6c29.4-25.4,46.4-57.9,38.9-98.8C248.4,82.4,204.8,26.8,176.6,3
		C157.9,35.1,138.1,103,145.6,143.9z"/>
		<animate attributeName="opacity" values="1;0" keyTimes="0;1" dur="8s" begin="-7.0s" repeatCount="indefinite"></animate>
</g>
<g>
	
		<linearGradient id="SVGID_2_" gradientUnits="userSpaceOnUse" x1="1108.561" y1="409.7205" x2="1032.4855" y2="453.9819" gradientTransform="matrix(1.6466 0 0 -1.6466 -1677.9421 899.2023)">
		<stop  offset="0" style="stop-color:#8FC5EC"/>
		<stop  offset="1" style="stop-color:#009BDB"/>
	</linearGradient>
	<path class="st1" d="M75,233.1c27,18.6,55.5,16.7,82.9,3.6c2-30.6-6.3-57.9-33.3-76.2c-27-18.6-81.7-25-110.7-22.6
		C21,166.5,48,214.9,75,233.1z"/>
		<!-- <animate attributeName="opacity" values="1;0" keyTimes="0;1" dur="8s" begin="-6.0s" repeatCount="indefinite"></animate> -->
</g>
<g>
	
		<linearGradient id="SVGID_3_" gradientUnits="userSpaceOnUse" x1="1087.7607" y1="367.2383" x2="1024.1362" y2="354.7898" gradientTransform="matrix(1.6466 0 0 -1.6466 -1677.9421 899.2023)">
		<stop  offset="0" style="stop-color:#8FC5EC"/>
		<stop  offset="1" style="stop-color:#009BDB"/>
	</linearGradient>
	<path class="st2" d="M79.4,332.7c22.6-4,36.1-19,43.6-39.3c-13.9-16.3-31.7-25.8-54.4-21.8c-22.6,4-53.6,27.8-66.7,43.2
		C19.5,326,56.8,337.1,79.4,332.7z"/>
		<!-- <animate attributeName="opacity" values="1;0" keyTimes="0;1" dur="8s" begin="-5.0s" repeatCount="indefinite"></animate> -->
</g>
<g>
	
		<linearGradient id="SVGID_4_" gradientUnits="userSpaceOnUse" x1="1192.6249" y1="387.8168" x2="1314.3115" y2="409.9412" gradientTransform="matrix(1.6466 0 0 -1.6466 -1677.9421 899.2023)">
		<stop  offset="0" style="stop-color:#8FC5EC"/>
		<stop  offset="1" style="stop-color:#009BDB"/>
	</linearGradient>
	<path class="st3" d="M377.4,301c-40.9,7.5-73.4-9.5-98.8-38.9c13.1-36.5,37.7-63.9,78.6-71.4C398,183.1,465.8,203.8,498,222
		C474.6,251,418.2,293.4,377.4,301z"/>
		<!-- <animate attributeName="opacity" values="1;0" keyTimes="0;1" dur="8s" begin="-4.0s" repeatCount="indefinite"></animate> -->
</g>
<g>
	
		<linearGradient id="SVGID_5_" gradientUnits="userSpaceOnUse" x1="1196.0012" y1="346.6128" x2="1281.5807" y2="294.2524" gradientTransform="matrix(1.6466 0 0 -1.6466 -1677.9421 899.2023)">
		<stop  offset="0" style="stop-color:#8FC5EC"/>
		<stop  offset="1" style="stop-color:#009BDB"/>
	</linearGradient>
	<path class="st4" d="M319.8,397.4c-27.8-17.5-36.9-44.4-36.1-75c27-13.9,55.5-16.7,83.3,0.8c27.8,17.5,55.2,65.5,63.9,92.8
		C402,420.8,347.2,415.2,319.8,397.4z"/>
		<animate attributeName="opacity" values="1;0" keyTimes="0;1" dur="8s" begin="-3.0s" repeatCount="indefinite"></animate>
</g>
<g>
	
		<linearGradient id="SVGID_6_" gradientUnits="userSpaceOnUse" x1="1168.7616" y1="310.835" x2="1181.205" y2="249.9947" gradientTransform="matrix(1.6466 0 0 -1.6466 -1677.9421 899.2023)">
		<stop  offset="0" style="stop-color:#8FC5EC"/>
		<stop  offset="1" style="stop-color:#009BDB"/>
	</linearGradient>
	<path class="st5" d="M225,431.9c-4.8-21.8,3.6-39.7,19-53.6c19.8,6.3,34.9,19,39.7,40.9s-5.2,58.3-14.3,75.8
		C253.6,483.1,229.8,453.7,225,431.9z"/>
		<!-- <animate attributeName="opacity" values="1;0" keyTimes="0;1" dur="8s" begin="-2.0s" repeatCount="indefinite"></animate> -->
</g>
<g>
	
		<linearGradient id="SVGID_7_" gradientUnits="userSpaceOnUse" x1="1110.7548" y1="315.1524" x2="1083.0941" y2="272.2829" gradientTransform="matrix(1.6466 0 0 -1.6466 -1677.9421 899.2023)">
		<stop  offset="0" style="stop-color:#8FC5EC"/>
		<stop  offset="1" style="stop-color:#009BDB"/>
	</linearGradient>
	<path class="st6" d="M153.2,422c10.3-15.1,9.1-30.9,2-46.4c-17.1-1.2-32.1,4-42.5,19s-13.9,46-12.3,61.9
		C116.3,452.1,142.9,437.1,153.2,422z"/>
		<!-- <animate attributeName="opacity" values="1;0" keyTimes="0;1" dur="8s" begin="-1.0s" repeatCount="indefinite"></animate> -->
</g>
<g>
	
		<linearGradient id="SVGID_8_" gradientUnits="userSpaceOnUse" x1="1177.1532" y1="411.9492" x2="1255.9727" y2="523.9581" gradientTransform="matrix(1.6466 0 0 -1.6466 -1677.9421 899.2023)">
		<stop  offset="0" style="stop-color:#8FC5EC"/>
		<stop  offset="1" style="stop-color:#009BDB"/>
	</linearGradient>
	<path class="st7" d="M255.5,105c-28.6,41.7-24.6,86.1-3.2,129.7c48.4,4.4,91.3-8.3,119.8-50c28.6-41.7,37.3-127.4,32.1-172.2
		C359.5,22.8,284.1,63.3,255.5,105z"/>
		<!-- <animate attributeName="opacity" values="1;0" keyTimes="0;1" dur="8s" begin="0s" repeatCount="indefinite"></animate> -->
</g>
<g>
	<path class="st8" d="M255.9,124c-0.8-4.4-2-9.1-3.6-13.9c-17.9,29-20.6,59.1-13.5,89.3C254.4,178,261.5,153,255.9,124z"/>
	<path class="st8" d="M368.6,189.1c-4.4,0.4-8.3,0.8-11.9,1.2c-29.8,5.6-50.4,21.4-64.7,43.6C322.2,229.6,348.8,216.1,368.6,189.1z"
		/>
</g>
</svg>
