<?xml version="1.0" encoding="utf-8"?>
<!-- Generator: Adobe Illustrator 22.1.0, SVG Export Plug-In . SVG Version: 6.00 Build 0)  -->
<svg version="1.1" id="Layer_1" xmlns="http://www.w3.org/2000/svg" xmlns:xlink="http://www.w3.org/1999/xlink" x="0px" y="0px"
	 viewBox="0 0 265.6 252.7" style="enable-background:new 0 0 265.6 252.7;" xml:space="preserve">
<style type="text/css">
	.st0{fill:#FFFFFF;}
</style>
<g>
	<g>
		<g>
			<path class="st0" d="M109.5,42.6c1.9,10.4,8.9,16.6,18.2,20c7.5-6.5,11.8-14.7,9.9-25.1c-1.9-10.4-13-24.6-20.1-30.6
				C112.6,15,107.6,32.2,109.5,42.6z"/>
		</g>
		<g>
			<path class="st0" d="M91.5,65.3c6.8,4.7,14.1,4.2,21.1,0.9c0.5-7.7-1.6-14.7-8.5-19.3S83.3,40.5,76,41.2
				C77.9,48.4,84.7,60.6,91.5,65.3z"/>
		</g>
		<g>
			<path class="st0" d="M92.6,90.6c5.8-1,9.2-4.8,11-9.9c-3.5-4.1-8.1-6.6-13.8-5.5c-5.7,1-13.6,7.1-16.9,11
				C77.4,88.8,86.9,91.6,92.6,90.6z"/>
		</g>
		<g>
			<path class="st0" d="M168.3,82.5c-10.4,1.9-18.7-2.4-25.1-9.9c3.4-9.3,9.5-16.3,20-18.2c10.4-1.9,27.6,3.4,35.8,8
				C193,69.8,178.7,80.6,168.3,82.5z"/>
		</g>
		<g>
			<path class="st0" d="M153.7,107c-7-4.5-9.4-11.3-9.1-19c6.9-3.5,14.1-4.2,21.1,0.2c7,4.5,14,16.7,16.3,23.6
				C174.6,112.9,160.7,111.5,153.7,107z"/>
		</g>
		<g>
			<path class="st0" d="M129.6,115.7c-1.2-5.5,0.9-10,4.8-13.6c5,1.6,8.9,4.8,10.1,10.4c1.2,5.5-1.3,14.8-3.6,19.3
				C136.9,128.8,130.9,121.3,129.6,115.7z"/>
		</g>
		<g>
			<path class="st0" d="M111.4,113.2c2.6-3.8,2.3-7.9,0.5-11.8c-4.3-0.3-8.2,1-10.8,4.8c-2.6,3.8-3.5,11.7-3.1,15.7
				C102,120.9,108.8,117.1,111.4,113.2z"/>
		</g>
		<g>
			<path class="st0" d="M137.4,32.7c-7.2,10.6-6.3,21.9-0.8,33c12.3,1.1,23.2-2.1,30.4-12.7c7.2-10.6,9.5-32.3,8.2-43.7
				C163.8,11.9,144.6,22.2,137.4,32.7z"/>
		</g>
		<g>
			<path class="st0" d="M137.5,37.5c-0.2-1.1-0.5-2.3-0.9-3.5c-4.6,7.3-5.3,15-3.4,22.7C137.1,51.3,138.9,44.9,137.5,37.5z"/>
			<path class="st0" d="M166.1,54.1c-1.1,0.1-2.1,0.2-3,0.3c-7.5,1.4-12.8,5.4-16.5,11C154.3,64.4,161,60.9,166.1,54.1z"/>
		</g>
	</g>
	<g>
		<g>
			<g>
				<path class="st0" d="M79.5,164.1c2.9-2.1,3.7-4.9,3.3-8.1c-3.1-1.2-6.2-1.3-9.1,0.8c-2.9,2-5.5,7.3-6.2,10.2
					C70.7,167.1,76.6,166.1,79.5,164.1z"/>
			</g>
		</g>
		<path class="st0" d="M49.8,209.3l-0.3,0.2c-5.2,3.1-10.6,4.6-16.4,4.6c-15.6,0-26.1-10.7-26.1-26.5c0-15.9,11.7-27.4,27.8-27.4
			c5.2,0,10.1,1.1,13.6,3l0.2,0.1v0.2l-0.2,7.9l0,0.6l-0.5-0.3c-4.2-2.6-8.2-3.7-13-3.7c-12.6,0-18.2,9.6-18.2,19.1
			c0,11.4,7.1,19.1,17.6,19.1c4.2,0,8.4-1.1,12.4-3.3l0.3-0.2l0.1,0.4l2.4,6.2L49.8,209.3z M87.9,210.6c0,0,0.2-6.2,0.2-9.8v-14.6
			c0-10.3-6.1-14.1-15.1-14.1c-5.2,0-9.9,1-15.1,4.5l3,5.6c2.4-1.6,5.7-3.2,10.3-3.2c4.5,0,7.9,2,7.9,7.6c0,0.2,0,0.8,0,1.2
			l-7.4,0.3c-10.3,0.4-16.4,5-16.4,13.1c0,1.5,0.3,3.1,0.8,4.5c1.9,5.3,7.2,7.8,12.8,8C76.1,214,87.9,210.8,87.9,210.6z M79.5,205.3
			c0,0-3.1,1.6-8.8,1.6c-4,0-6.5-2.9-6.5-6.4c0-3.7,2.6-5.8,8.6-6l6.8-0.3V205.3z M124.1,155.3c-3.2,0-5.6,2.4-5.6,5.5
			c0,3,2.4,5.5,5.6,5.5c3.1,0,5.5-2.5,5.5-5.5C129.6,157.6,127.2,155.3,124.1,155.3z M128.4,212.9v-39.8h-8.7v39.8H128.4z
			 M172.1,210.6v-57.3h-8.7v19.3c-1.5-0.3-3.2-0.5-5.6-0.5c-12.4,0-21.5,8.9-21.5,21.3c0,13.5,9.6,20.4,21.3,20.4
			C163.8,213.7,168.8,212.4,172.1,210.6z M163.3,205.6c-1.2,0.4-3.1,0.8-4.9,0.8c-8.7,0-13.5-5.7-13.5-13.5
			c0-8.4,5.7-13.5,13.1-13.5c2.5,0,3.8,0.3,5.2,0.7V205.6z M214.6,210.6v-57.3h-8.8v19.3c-1.5-0.3-3.2-0.5-5.6-0.5
			c-12.4,0-21.5,8.9-21.5,21.3c0,13.5,9.6,20.4,21.3,20.4C206.3,213.7,211.3,212.4,214.6,210.6z M205.8,205.6
			c-1.2,0.4-3.1,0.8-4.9,0.8c-8.7,0-13.5-5.7-13.5-13.5c0-8.4,5.7-13.5,13.1-13.5c2.5,0,3.8,0.3,5.2,0.7V205.6z M255,210.6
			c0,0,0.2-6.2,0.2-9.8v-14.6c0-10.3-6.1-14.1-15.1-14.1c-5.2,0-9.9,1-15.1,4.5l3,5.6c2.4-1.6,5.7-3.2,10.3-3.2c4.5,0,7.9,2,7.9,7.6
			c0,0.2,0,0.8,0,1.2l-7.4,0.3c-10.3,0.4-16.4,5-16.4,13.1c0,1.5,0.3,3.1,0.8,4.5c1.9,5.3,7.2,7.8,12.8,8
			C243.3,214,255,210.8,255,210.6z M246.7,205.3c0,0-3.1,1.6-8.8,1.6c-4,0-6.5-2.9-6.5-6.4c0-3.7,2.6-5.8,8.6-6l6.8-0.3V205.3z
			 M111.9,212l-1.1-6.5c-1.2,0.3-2,0.3-2.6,0.3c-2.2,0-2.9-1-2.9-4.2v-48.3h-8.7v52.1c0,4.7,2.4,8.3,8.3,8.3
			C107.2,213.7,109.4,213.3,111.9,212z"/>
		<g>
			<path class="st0" d="M23.2,245c-0.8,0.3-2.4,0.8-4.5,0.8c-2.2,0-4-0.5-5.3-1.8c-1.1-1.1-1.8-2.7-1.8-4.6c0-3.4,2.6-6.5,7.6-6.5
				c1.7,0,3,0.4,3.6,0.7l-0.4,1.4c-0.8-0.3-1.8-0.6-3.3-0.6c-3.6,0-5.7,2.1-5.7,5.1c0,3,2.1,5.1,5.5,5.1c1.3,0,2.1-0.2,2.6-0.4v-3.7
				h-2.9v-1.4h4.6V245z"/>
			<path class="st0" d="M30.2,240.2l1.4-3.8c0.3-0.7,0.5-1.4,0.7-2.1h0c0.2,0.7,0.4,1.3,0.7,2.1l1.5,3.8H30.2z M34.9,241.6l1.5,4.1
				h1.9l-4.8-12.7h-2.1l-4.8,12.7h1.8l1.5-4.1H34.9z"/>
			<path class="st0" d="M41.7,243.5c0.8,0.5,2,0.9,3.3,0.9c1.8,0,2.8-0.9,2.8-2.2c0-1.2-0.7-1.9-2.6-2.5c-2.4-0.8-3.7-1.8-3.7-3.6
				c0-2,1.7-3.5,4.4-3.5c1.5,0,2.5,0.3,3.1,0.7l-0.5,1.4c-0.4-0.2-1.4-0.7-2.7-0.7c-1.9,0-2.6,1.1-2.6,1.9c0,1.2,0.8,1.8,2.7,2.4
				c2.4,0.8,3.6,1.8,3.6,3.8c0,1.9-1.4,3.7-4.7,3.7c-1.4,0-2.8-0.4-3.6-0.9L41.7,243.5z"/>
			<path class="st0" d="M59.5,245.6v-12.7h1.9l4.6,6.6c1.1,1.5,1.8,2.8,2.5,4l0.1,0c-0.2-1.6-0.2-3.1-0.2-5v-5.6h1.6v12.7h-1.8
				l-4.6-6.5c-1-1.5-1.9-2.9-2.6-4.2l-0.1,0c0.1,1.6,0.1,3.1,0.1,5v5.8H59.5z"/>
			<path class="st0" d="M77.4,240.2l1.4-3.8c0.3-0.7,0.5-1.4,0.7-2.1h0c0.2,0.7,0.4,1.3,0.7,2.1l1.5,3.8H77.4z M82.1,241.6l1.5,4.1
				h1.9l-4.8-12.7h-2.1l-4.8,12.7h1.8l1.5-4.1H82.1z"/>
			<path class="st0" d="M91.9,234.3h-4.4v-1.4H98v1.4h-4.4v11.3h-1.7V234.3z"/>
			<path class="st0" d="M102.8,232.9v7.2c0,3,1.4,4.4,3.4,4.4c2.1,0,3.5-1.4,3.5-4.4v-7.2h1.7v7.1c0,4.1-2.3,5.8-5.3,5.8
				c-2.8,0-5-1.6-5-5.8v-7.2H102.8z"/>
			<path class="st0" d="M117.9,234.3c0.3-0.1,0.9-0.2,1.9-0.2c1.8,0,3.2,0.7,3.2,2.4c0,1.4-1.2,2.4-3.1,2.4h-2V234.3z M116.2,245.6
				h1.7v-5.5h1.9c1.6,0.1,2.3,0.7,2.7,2.5c0.4,1.6,0.7,2.6,0.9,3h1.8c-0.3-0.5-0.6-1.8-1.1-3.6c-0.3-1.2-0.9-2.1-1.9-2.5v0
				c1.3-0.4,2.5-1.5,2.5-3.2c0-1-0.4-1.9-1-2.4c-0.8-0.7-2.1-1.1-4-1.1c-1.3,0-2.6,0.1-3.5,0.3V245.6z"/>
			<path class="st0" d="M131.4,240.2l1.4-3.8c0.3-0.7,0.5-1.4,0.7-2.1h0c0.2,0.7,0.4,1.3,0.7,2.1l1.4,3.8H131.4z M136.1,241.6
				l1.5,4.1h1.9l-4.8-12.7h-2.1l-4.8,12.7h1.8l1.5-4.1H136.1z"/>
			<path class="st0" d="M143.2,232.9h1.7v11.3h6v1.4h-7.8V232.9z"/>
			<path class="st0" d="M162.1,234.4c0.5-0.1,1.3-0.2,2.3-0.2c3.9,0,5.9,1.9,5.8,4.9c0,3.1-2,5.4-6.2,5.4c-0.8,0-1.5,0-2-0.1V234.4z
				 M160.4,245.6c1,0.1,2.1,0.1,3.4,0.1c2.8,0,5-0.7,6.3-2c1.3-1.3,1.9-3,1.9-4.8c0-1.8-0.6-3.3-1.8-4.4c-1.3-1.2-3.2-1.8-5.9-1.8
				c-1.5,0-2.8,0.1-4,0.3V245.6z"/>
			<path class="st0" d="M183.2,239.7h-5.5v4.5h6.1v1.4H176v-12.7h7.5v1.4h-5.8v4h5.5V239.7z"/>
			<path class="st0" d="M187.8,232.9h1.7v11.3h6v1.4h-7.8V232.9z"/>
			<path class="st0" d="M206.7,234.3c0.3-0.1,0.9-0.1,1.8-0.1c1.9,0,3.3,0.7,3.3,2.5c0,1.7-1.3,2.7-3.5,2.7c-0.6,0-1.2-0.1-1.6-0.2
				V234.3z M205,245.6h1.7v-5.1c0.4,0.1,1,0.2,1.6,0.2c1.8,0,3.2-0.5,4.2-1.4c0.7-0.7,1.1-1.6,1.1-2.8c0-1.1-0.5-2.1-1.2-2.7
				c-0.8-0.7-2-1.1-3.8-1.1c-1.5,0-2.6,0.1-3.5,0.3V245.6z"/>
			<path class="st0" d="M224.8,239.7h-5.5v4.5h6.1v1.4h-7.8v-12.7h7.5v1.4h-5.8v4h5.5V239.7z"/>
			<path class="st0" d="M231.1,234.3c0.3-0.1,1-0.2,1.9-0.2c1.8,0,3.2,0.7,3.2,2.4c0,1.4-1.2,2.4-3.1,2.4h-2V234.3z M229.4,245.6
				h1.7v-5.5h1.9c1.6,0.1,2.3,0.7,2.7,2.5c0.4,1.6,0.7,2.6,0.9,3h1.8c-0.3-0.5-0.6-1.8-1.1-3.6c-0.3-1.2-0.9-2.1-1.9-2.5v0
				c1.3-0.4,2.5-1.5,2.5-3.2c0-1-0.4-1.9-1-2.4c-0.8-0.7-2.1-1.1-4-1.1c-1.3,0-2.6,0.1-3.5,0.3V245.6z"/>
			<path class="st0" d="M243.8,232.9v7.2c0,3,1.4,4.4,3.4,4.4c2.1,0,3.5-1.4,3.5-4.4v-7.2h1.7v7.1c0,4.1-2.3,5.8-5.3,5.8
				c-2.8,0-5-1.6-5-5.8v-7.2H243.8z M250.2,230l-2.4,2.3h-1.4l1.7-2.3H250.2z"/>
		</g>
	</g>
</g>
</svg>
