<?xml version="1.0" encoding="utf-8"?>
<!-- Generator: Adobe Illustrator 22.1.0, SVG Export Plug-In . SVG Version: 6.00 Build 0)  -->
<svg version="1.1" id="Layer_1" xmlns="http://www.w3.org/2000/svg" xmlns:xlink="http://www.w3.org/1999/xlink" x="0px" y="0px"
	 viewBox="0 0 265.6 252.7" style="enable-background:new 0 0 265.6 252.7;" xml:space="preserve">
<style type="text/css">
	.st0{fill:url(#SVGID_1_);}
	.st1{fill:url(#SVGID_2_);}
	.st2{fill:url(#SVGID_3_);}
	.st3{fill:url(#SVGID_4_);}
	.st4{fill:url(#SVGID_5_);}
	.st5{fill:url(#SVGID_6_);}
	.st6{fill:url(#SVGID_7_);}
	.st7{fill:url(#SVGID_8_);}
	.st8{fill:#00408F;}
	.st9{fill:#727176;}
</style>
<g>
	<g>
		<g>
			
				<linearGradient id="SVGID_1_" gradientUnits="userSpaceOnUse" x1="1097.8458" y1="-10.57" x2="1092.9661" y2="-37.4063" gradientTransform="matrix(1.6466 0 0 1.6466 -1677.2955 73.2557)">
				<stop  offset="0" style="stop-color:#8FC5EC"/>
				<stop  offset="1" style="stop-color:#009BDB"/>
			</linearGradient>
			<path class="st0" d="M113.1,39.9c1.9,10.4,8.8,16.5,18,19.8c7.4-6.4,11.7-14.6,9.8-24.9c-1.9-10.4-12.9-24.4-20-30.4
				C116.2,12.5,111.2,29.6,113.1,39.9z"/>
		</g>
		<g>
			
				<linearGradient id="SVGID_2_" gradientUnits="userSpaceOnUse" x1="1087.5917" y1="-7.8879" x2="1068.4183" y2="-19.0431" gradientTransform="matrix(1.6466 0 0 1.6466 -1677.2955 73.2557)">
				<stop  offset="0" style="stop-color:#8FC5EC"/>
				<stop  offset="1" style="stop-color:#009BDB"/>
			</linearGradient>
			<path class="st1" d="M95.3,62.4c6.8,4.7,14,4.2,20.9,0.9c0.5-7.7-1.6-14.6-8.4-19.2c-6.8-4.7-20.6-6.3-27.9-5.7
				C81.7,45.6,88.5,57.8,95.3,62.4z"/>
		</g>
		<g>
			
				<linearGradient id="SVGID_3_" gradientUnits="userSpaceOnUse" x1="1082.3661" y1="2.8384" x2="1066.3308" y2="5.9758" gradientTransform="matrix(1.6466 0 0 1.6466 -1677.2955 73.2557)">
				<stop  offset="0" style="stop-color:#8FC5EC"/>
				<stop  offset="1" style="stop-color:#009BDB"/>
			</linearGradient>
			<path class="st2" d="M96.4,87.5c5.7-1,9.1-4.8,11-9.9c-3.5-4.1-8-6.5-13.7-5.5c-5.7,1-13.5,7-16.8,10.9
				C81.3,85.8,90.7,88.6,96.4,87.5z"/>
		</g>
		<g>
			
				<linearGradient id="SVGID_4_" gradientUnits="userSpaceOnUse" x1="1108.7855" y1="-2.3975" x2="1139.4542" y2="-7.9735" gradientTransform="matrix(1.6466 0 0 1.6466 -1677.2955 73.2557)">
				<stop  offset="0" style="stop-color:#8FC5EC"/>
				<stop  offset="1" style="stop-color:#009BDB"/>
			</linearGradient>
			<path class="st3" d="M171.5,79.5c-10.3,1.9-18.5-2.4-24.9-9.8c3.3-9.2,9.5-16.1,19.8-18c10.3-1.9,27.4,3.3,35.5,7.9
				C196,66.9,181.8,77.6,171.5,79.5z"/>
		</g>
		<g>
			
				<linearGradient id="SVGID_5_" gradientUnits="userSpaceOnUse" x1="1109.6234" y1="8.0258" x2="1131.192" y2="21.2222" gradientTransform="matrix(1.6466 0 0 1.6466 -1677.2955 73.2557)">
				<stop  offset="0" style="stop-color:#8FC5EC"/>
				<stop  offset="1" style="stop-color:#009BDB"/>
			</linearGradient>
			<path class="st4" d="M157,103.8c-7-4.4-9.3-11.2-9.1-18.9c6.8-3.5,14-4.2,21,0.2c7,4.4,13.9,16.5,16.1,23.4
				C177.7,109.7,163.9,108.3,157,103.8z"/>
		</g>
		<g>
			
				<linearGradient id="SVGID_6_" gradientUnits="userSpaceOnUse" x1="1102.7878" y1="17.0147" x2="1105.924" y2="32.3483" gradientTransform="matrix(1.6466 0 0 1.6466 -1677.2955 73.2557)">
				<stop  offset="0" style="stop-color:#8FC5EC"/>
				<stop  offset="1" style="stop-color:#009BDB"/>
			</linearGradient>
			<path class="st5" d="M133.1,112.5c-1.2-5.5,0.9-10,4.8-13.5c5,1.6,8.8,4.8,10,10.3c1.2,5.5-1.3,14.7-3.6,19.1
				C140.3,125.4,134.3,118,133.1,112.5z"/>
		</g>
		<g>
			
				<linearGradient id="SVGID_7_" gradientUnits="userSpaceOnUse" x1="1088.1395" y1="15.92" x2="1081.1682" y2="26.7244" gradientTransform="matrix(1.6466 0 0 1.6466 -1677.2955 73.2557)">
				<stop  offset="0" style="stop-color:#8FC5EC"/>
				<stop  offset="1" style="stop-color:#009BDB"/>
			</linearGradient>
			<path class="st6" d="M115,110c2.6-3.8,2.3-7.8,0.5-11.7c-4.3-0.3-8.1,1-10.7,4.8c-2.6,3.8-3.5,11.6-3.1,15.6
				C105.7,117.6,112.4,113.8,115,110z"/>
		</g>
		<g>
			
				<linearGradient id="SVGID_8_" gradientUnits="userSpaceOnUse" x1="1104.8862" y1="-8.4679" x2="1124.7511" y2="-36.6975" gradientTransform="matrix(1.6466 0 0 1.6466 -1677.2955 73.2557)">
				<stop  offset="0" style="stop-color:#8FC5EC"/>
				<stop  offset="1" style="stop-color:#009BDB"/>
			</linearGradient>
			<path class="st7" d="M140.8,30.1c-7.2,10.5-6.2,21.7-0.8,32.7c12.2,1.1,23-2.1,30.2-12.6c7.2-10.5,9.4-32.1,8.1-43.4
				C167,9.4,148,19.6,140.8,30.1z"/>
		</g>
		<g>
			<path class="st8" d="M140.9,34.9c-0.2-1.1-0.5-2.3-0.9-3.5c-4.5,7.3-5.2,14.9-3.4,22.5C140.5,48.5,142.3,42.2,140.9,34.9z"/>
			<path class="st8" d="M169.3,51.3c-1.1,0.1-2.1,0.2-3,0.3c-7.5,1.4-12.7,5.4-16.3,11C157.6,61.5,164.3,58.1,169.3,51.3z"/>
		</g>
	</g>
	<g>
		<g>
			<g>
				<path class="st9" d="M80.7,160.4c2.8-2.1,3.7-4.9,3.3-8.1c-3.1-1.2-6.2-1.3-9.1,0.8c-2.9,2-5.5,7.3-6.2,10.2
					C72,163.5,77.9,162.5,80.7,160.4z"/>
			</g>
		</g>
		<path class="st9" d="M51.2,205.5l-0.3,0.1c-5.2,3.1-10.5,4.6-16.3,4.6c-15.5,0-26-10.6-26-26.5c0-15.8,11.7-27.3,27.7-27.3
			c5.1,0,10.1,1.1,13.5,2.9l0.2,0.1v0.2l-0.2,7.9v0.6l-0.5-0.3c-4.2-2.6-8.2-3.7-13-3.7c-12.5,0-18.1,9.5-18.1,19
			c0,11.4,7.1,19.1,17.6,19.1c4.2,0,8.3-1.1,12.3-3.3l0.3-0.2l0.1,0.4l2.4,6.1L51.2,205.5z"/>
		<path class="st9" d="M89.1,206.8c0,0,0.2-6.2,0.2-9.8v-14.5c0-10.3-6-14.1-15.1-14.1c-5.2,0-9.9,1-15,4.5l3,5.6
			c2.4-1.6,5.7-3.2,10.3-3.2c4.5,0,7.9,2,7.9,7.5c0,0.2,0,0.8,0,1.2l-7.4,0.3c-10.2,0.4-16.4,4.9-16.4,13.1c0,1.5,0.3,3.1,0.8,4.5
			c1.9,5.2,7.1,7.8,12.7,8C77.4,210.3,89.1,207,89.1,206.8z M80.8,201.6c0,0-3.1,1.6-8.8,1.6c-4,0-6.5-2.9-6.5-6.4
			c0-3.7,2.6-5.8,8.6-5.9l6.8-0.3V201.6z"/>
		<path class="st9" d="M125.2,151.7c-3.2,0-5.6,2.4-5.6,5.5c0,3,2.4,5.4,5.6,5.4c3.1,0,5.5-2.5,5.5-5.4
			C130.7,154,128.3,151.7,125.2,151.7z"/>
		<rect x="120.8" y="169.4" class="st9" width="8.7" height="39.7"/>
		<path class="st9" d="M173.1,206.8v-57.1h-8.7v19.2c-1.5-0.3-3.2-0.5-5.5-0.5c-12.3,0-21.5,8.9-21.5,21.2
			c0,13.5,9.6,20.3,21.2,20.3C164.9,209.9,169.8,208.6,173.1,206.8z M164.3,201.9c-1.2,0.4-3.1,0.8-4.9,0.8
			c-8.6,0-13.4-5.7-13.4-13.5c0-8.4,5.7-13.5,13.1-13.5c2.5,0,3.8,0.2,5.2,0.7V201.9z"/>
		<path class="st9" d="M215.4,206.8v-57.1h-8.7v19.2c-1.5-0.3-3.2-0.5-5.5-0.5c-12.3,0-21.5,8.9-21.5,21.2
			c0,13.5,9.6,20.3,21.2,20.3C207.2,209.9,212.2,208.6,215.4,206.8z M206.7,201.9c-1.2,0.4-3.1,0.8-4.9,0.8
			c-8.6,0-13.4-5.7-13.4-13.5c0-8.4,5.7-13.5,13.1-13.5c2.5,0,3.8,0.2,5.2,0.7V201.9z"/>
		<path class="st9" d="M255.8,206.8c0,0,0.2-6.2,0.2-9.8v-14.5c0-10.3-6-14.1-15.1-14.1c-5.2,0-9.9,1-15,4.5l3,5.6
			c2.4-1.6,5.7-3.2,10.3-3.2c4.5,0,7.9,2,7.9,7.5c0,0.2,0,0.8,0,1.2l-7.4,0.3c-10.2,0.4-16.4,4.9-16.4,13.1c0,1.5,0.3,3.1,0.8,4.5
			c1.9,5.2,7.1,7.8,12.7,8C244.1,210.3,255.8,207,255.8,206.8z M247.4,201.6c0,0-3.1,1.6-8.8,1.6c-4,0-6.5-2.9-6.5-6.4
			c0-3.7,2.6-5.8,8.6-5.9l6.8-0.3V201.6z"/>
		<path class="st9" d="M113.1,208.2l-1.1-6.5c-1.2,0.3-2,0.3-2.6,0.3c-2.2,0-2.9-1-2.9-4.2v-48.1h-8.7v51.9c0,4.7,2.3,8.3,8.3,8.3
			C108.4,209.9,110.6,209.5,113.1,208.2z"/>
	</g>
	<g>
		<path class="st9" d="M24.6,241.1c-0.8,0.3-2.4,0.8-4.4,0.8c-2.2,0-3.9-0.5-5.3-1.8c-1.1-1.1-1.8-2.7-1.8-4.6
			c0-3.4,2.6-6.5,7.5-6.5c1.7,0,3,0.4,3.6,0.6l-0.4,1.4c-0.8-0.4-1.8-0.6-3.2-0.6c-3.6,0-5.7,2.1-5.7,5c0,3,2.1,5.1,5.5,5.1
			c1.3,0,2.1-0.2,2.6-0.4v-3.6H20v-1.4h4.6V241.1z"/>
		<path class="st9" d="M31.6,236.4l1.4-3.8c0.3-0.7,0.5-1.4,0.7-2.1h0c0.2,0.7,0.4,1.3,0.7,2.1l1.5,3.8H31.6z M36.2,237.7l1.5,4h1.8
			l-4.8-12.7h-2.1l-4.8,12.7h1.8l1.5-4H36.2z"/>
		<path class="st9" d="M43.1,239.6c0.8,0.5,2,0.9,3.3,0.9c1.8,0,2.8-0.9,2.8-2.2c0-1.2-0.7-1.9-2.6-2.5c-2.4-0.7-3.7-1.8-3.7-3.6
			c0-2,1.7-3.5,4.4-3.5c1.5,0,2.5,0.3,3.1,0.7l-0.5,1.4c-0.4-0.3-1.4-0.7-2.7-0.7c-1.9,0-2.6,1.1-2.6,1.9c0,1.1,0.8,1.8,2.7,2.4
			c2.4,0.8,3.6,1.7,3.6,3.8c0,1.9-1.4,3.7-4.7,3.7c-1.3,0-2.8-0.4-3.6-0.9L43.1,239.6z"/>
		<path class="st9" d="M60.8,241.7v-12.7h2l4.6,6.5c1.1,1.5,1.8,2.8,2.5,4l0,0c-0.2-1.6-0.2-3.1-0.2-5v-5.6h1.6v12.7h-1.8l-4.6-6.5
			c-1-1.5-1.9-2.9-2.6-4.2l-0.1,0c0.1,1.6,0.1,3.1,0.1,5v5.8H60.8z"/>
		<path class="st9" d="M78.7,236.4l1.4-3.8c0.3-0.7,0.5-1.4,0.7-2.1h0c0.2,0.7,0.4,1.3,0.7,2.1l1.5,3.8H78.7z M83.4,237.7l1.5,4h1.9
			l-4.8-12.7h-2.1l-4.8,12.7h1.8l1.5-4H83.4z"/>
		<path class="st9" d="M93.1,230.5h-4.4v-1.4h10.5v1.4h-4.4v11.2h-1.7V230.5z"/>
		<path class="st9" d="M104,229.1v7.2c0,3,1.4,4.3,3.4,4.3c2.1,0,3.5-1.4,3.5-4.3v-7.2h1.7v7.1c0,4.1-2.3,5.8-5.3,5.8
			c-2.8,0-5-1.6-5-5.8v-7.1H104z"/>
		<path class="st9" d="M119,230.4c0.3-0.1,0.9-0.2,1.9-0.2c1.8,0,3.2,0.6,3.2,2.3c0,1.5-1.2,2.4-3.1,2.4h-2V230.4z M117.3,241.7h1.7
			v-5.5h1.9c1.6,0.1,2.3,0.8,2.7,2.5c0.4,1.6,0.7,2.6,0.9,3h1.8c-0.3-0.5-0.6-1.8-1-3.6c-0.3-1.2-0.9-2.1-1.9-2.5v0
			c1.3-0.4,2.5-1.5,2.5-3.2c0-1-0.4-1.8-1-2.4c-0.8-0.7-2-1.1-3.9-1.1c-1.3,0-2.6,0.1-3.5,0.3V241.7z"/>
		<path class="st9" d="M132.6,236.4l1.4-3.8c0.3-0.7,0.5-1.4,0.7-2.1h0c0.2,0.7,0.4,1.3,0.7,2.1l1.4,3.8H132.6z M137.2,237.7l1.5,4
			h1.9l-4.8-12.7h-2.1l-4.8,12.7h1.8l1.5-4H137.2z"/>
		<path class="st9" d="M144.2,229.1h1.7v11.2h6v1.4h-7.7V229.1z"/>
		<path class="st9" d="M163.1,230.5c0.5-0.1,1.3-0.2,2.3-0.2c3.9,0,5.8,1.9,5.8,4.9c0,3.1-2,5.3-6.2,5.3c-0.8,0-1.5,0-2-0.1V230.5z
			 M161.4,241.7c1,0.1,2.1,0.1,3.4,0.1c2.8,0,5-0.7,6.3-2c1.3-1.3,1.9-3,1.9-4.8c0-1.8-0.6-3.3-1.8-4.4c-1.3-1.2-3.2-1.8-5.9-1.8
			c-1.5,0-2.8,0.1-4,0.3V241.7z"/>
		<path class="st9" d="M184.2,235.8h-5.5v4.5h6.1v1.4H177v-12.7h7.5v1.4h-5.8v4h5.5V235.8z"/>
		<path class="st9" d="M188.8,229.1h1.7v11.2h6v1.4h-7.8V229.1z"/>
		<path class="st9" d="M207.6,230.4c0.3-0.1,0.9-0.1,1.8-0.1c1.9,0,3.3,0.7,3.3,2.5c0,1.7-1.3,2.7-3.4,2.7c-0.6,0-1.2,0-1.6-0.2
			V230.4z M205.9,241.7h1.7v-5c0.4,0.1,1,0.2,1.6,0.2c1.8,0,3.2-0.5,4.2-1.4c0.7-0.7,1.1-1.6,1.1-2.8c0-1.1-0.5-2.1-1.2-2.7
			c-0.8-0.7-2-1.1-3.8-1.1c-1.5,0-2.6,0.1-3.5,0.3V241.7z"/>
		<path class="st9" d="M225.6,235.8h-5.5v4.5h6.1v1.4h-7.8v-12.7h7.5v1.4h-5.8v4h5.5V235.8z"/>
		<path class="st9" d="M231.9,230.4c0.3-0.1,0.9-0.2,1.9-0.2c1.8,0,3.2,0.6,3.2,2.3c0,1.5-1.2,2.4-3,2.4h-2V230.4z M230.2,241.7h1.7
			v-5.5h1.9c1.6,0.1,2.3,0.8,2.7,2.5c0.4,1.6,0.7,2.6,0.9,3h1.8c-0.3-0.5-0.6-1.8-1-3.6c-0.3-1.2-0.9-2.1-1.9-2.5v0
			c1.3-0.4,2.5-1.5,2.5-3.2c0-1-0.4-1.8-1-2.4c-0.8-0.7-2-1.1-3.9-1.1c-1.3,0-2.6,0.1-3.5,0.3V241.7z"/>
		<path class="st9" d="M244.6,229.1v7.2c0,3,1.4,4.3,3.4,4.3c2.1,0,3.5-1.4,3.5-4.3v-7.2h1.7v7.1c0,4.1-2.3,5.8-5.3,5.8
			c-2.8,0-5-1.6-5-5.8v-7.1H244.6z M250.9,226.2l-2.4,2.2h-1.4l1.7-2.2H250.9z"/>
	</g>
</g>
</svg>
